<svg xmlns="http://www.w3.org/2000/svg" viewBox="0 0 96 96" fill="none"><path d="M 35.00 64.00 L 33.00 64.00 L 31.00 65.00 L 29.00 67.00 L 29.00 72.00 L 30.00 74.00 L 34.00 76.00 L 36.00 75.00 L 39.00 72.00 L 39.00 68.00 L 37.00 65.00 Z M 33.00 67.00 L 35.00 67.00 L 37.00 69.00 L 37.00 71.00 L 35.00 73.00 L 33.00 73.00 L 31.00 71.00 L 31.00 69.00 Z M 18.00 53.00 L 16.00 55.00 L 16.00 61.00 L 19.00 64.00 L 22.00 64.00 L 24.00 63.00 L 26.00 59.00 L 26.00 57.00 L 25.00 55.00 L 24.00 54.00 L 22.00 53.00 Z M 21.00 55.00 L 23.00 57.00 L 22.00 61.00 L 18.00 60.00 L 18.00 57.00 Z M 21.00 34.00 L 19.00 35.00 L 16.00 36.00 L 15.00 38.00 L 15.00 41.00 L 16.00 42.00 L 16.00 44.00 L 18.00 45.00 L 22.00 45.00 L 24.00 44.00 L 25.00 37.00 L 23.00 35.00 Z M 17.00 40.00 L 18.00 38.00 L 23.00 38.00 L 23.00 41.00 L 21.00 43.00 L 18.00 42.00 Z M 31.00 18.00 L 27.00 22.00 L 27.00 25.00 L 28.00 27.00 L 30.00 29.00 L 33.00 30.00 L 35.00 29.00 L 37.00 27.00 L 37.00 21.00 L 35.00 19.00 L 33.00 18.00 Z M 31.00 21.00 L 33.00 21.00 L 36.00 24.00 L 33.00 27.00 L 31.00 27.00 L 29.00 25.00 L 29.00 23.00 Z M 88.00 6.00 L 75.00 14.00 L 74.00 16.00 L 75.00 22.00 L 68.00 32.00 L 59.00 36.00 L 55.00 36.00 L 53.00 34.00 L 53.00 30.00 L 59.00 21.00 L 58.00 14.00 L 53.00 9.00 L 36.00 8.00 L 23.00 14.00 L 12.00 26.00 L 6.00 44.00 L 7.00 59.00 L 14.00 73.00 L 25.00 81.00 L 41.00 84.00 L 42.00 88.00 L 46.00 88.00 L 52.00 79.00 L 53.00 82.00 L 56.00 82.00 L 70.00 74.00 L 78.00 65.00 L 83.00 55.00 L 83.00 43.00 L 80.00 38.00 L 77.00 37.00 L 82.00 26.00 L 84.00 26.00 L 89.00 19.00 Z M 77.00 38.00 L 81.00 44.00 L 81.00 53.00 L 77.00 62.00 L 75.00 65.00 L 68.00 72.00 L 64.00 75.00 L 57.00 79.00 L 52.00 79.00 L 53.00 77.00 L 55.00 75.00 L 56.00 72.00 L 59.00 69.00 L 70.00 51.00 L 74.00 42.00 Z M 71.00 33.00 L 74.00 36.00 L 74.00 38.00 L 66.00 53.00 L 56.00 69.00 L 53.00 72.00 L 48.00 81.00 L 46.00 83.00 L 45.00 81.00 L 49.00 74.00 L 51.00 67.00 L 55.00 61.00 L 57.00 55.00 L 64.00 44.00 L 66.00 38.00 L 69.00 34.00 Z M 77.00 24.00 L 79.00 26.00 L 79.00 28.00 L 77.00 32.00 L 73.00 32.00 L 72.00 29.00 L 74.00 27.00 L 74.00 26.00 L 75.00 25.00 Z M 86.00 10.00 L 87.00 18.00 L 85.00 22.00 L 84.00 23.00 L 83.00 23.00 L 81.00 24.00 L 78.00 22.00 L 76.00 20.00 L 76.00 17.00 L 78.00 15.00 L 78.00 14.00 L 79.00 13.00 L 83.00 11.00 Z M 49.00 10.00 L 53.00 12.00 L 56.00 16.00 L 56.00 22.00 L 51.00 29.00 L 51.00 35.00 L 52.00 37.00 L 58.00 39.00 L 63.00 36.00 L 64.00 38.00 L 58.00 48.00 L 58.00 50.00 L 52.00 62.00 L 49.00 66.00 L 44.00 79.00 L 41.00 84.00 L 39.00 81.00 L 34.00 81.00 L 23.00 77.00 L 15.00 70.00 L 10.00 61.00 L 8.00 48.00 L 11.00 33.00 L 13.00 31.00 L 13.00 29.00 L 21.00 19.00 L 28.00 14.00 L 37.00 10.00 Z" fill="currentColor" fill-rule="evenodd" clip-rule="evenodd"/></svg>