<svg xmlns="http://www.w3.org/2000/svg" viewBox="0 0 96 96" fill="none"><path d="M 74.00 39.00 L 69.00 37.00 L 58.00 38.00 L 56.00 36.00 L 45.00 33.00 L 36.00 25.00 L 30.00 25.00 L 20.00 41.00 L 15.00 66.00 L 5.00 80.00 L 5.00 85.00 L 9.00 88.00 L 12.00 87.00 L 23.00 71.00 L 27.00 59.00 L 34.00 67.00 L 33.00 84.00 L 34.00 87.00 L 38.00 89.00 L 41.00 86.00 L 43.00 62.00 L 32.00 48.00 L 35.00 41.00 L 38.00 40.00 L 46.00 44.00 L 54.00 45.00 L 56.00 44.00 L 65.00 48.00 L 67.00 50.00 L 67.00 54.00 L 63.00 57.00 L 63.00 60.00 L 70.00 60.00 L 76.00 55.00 L 77.00 52.00 L 77.00 44.00 Z M 59.00 40.00 L 64.00 39.00 L 68.00 39.00 L 71.00 40.00 L 75.00 44.00 L 76.00 47.00 L 76.00 49.00 L 75.00 50.00 L 75.00 53.00 L 71.00 57.00 L 67.00 57.00 L 69.00 54.00 L 69.00 50.00 L 68.00 48.00 L 65.00 45.00 L 63.00 44.00 L 61.00 44.00 L 59.00 43.00 Z M 56.00 39.00 L 55.00 42.00 L 48.00 42.00 L 43.00 41.00 L 37.00 36.00 L 34.00 36.00 L 34.00 40.00 L 30.00 49.00 L 41.00 63.00 L 41.00 72.00 L 40.00 73.00 L 40.00 83.00 L 39.00 85.00 L 37.00 86.00 L 35.00 83.00 L 36.00 66.00 L 30.00 58.00 L 25.00 55.00 L 22.00 69.00 L 11.00 84.00 L 7.00 84.00 L 7.00 81.00 L 17.00 67.00 L 21.00 44.00 L 26.00 34.00 L 32.00 27.00 L 35.00 27.00 L 45.00 36.00 L 52.00 37.00 Z M 85.00 20.00 L 83.00 22.00 L 82.00 24.00 L 82.00 26.00 L 83.00 28.00 L 85.00 30.00 L 88.00 30.00 L 90.00 28.00 L 90.00 22.00 L 88.00 20.00 Z M 86.00 22.00 L 88.00 24.00 L 88.00 26.00 L 86.00 28.00 L 84.00 26.00 L 84.00 24.00 Z M 39.00 6.00 L 37.00 7.00 L 34.00 10.00 L 34.00 13.00 L 33.00 14.00 L 33.00 16.00 L 34.00 17.00 L 34.00 20.00 L 37.00 23.00 L 39.00 24.00 L 41.00 24.00 L 43.00 23.00 L 45.00 21.00 L 46.00 19.00 L 46.00 11.00 L 45.00 9.00 L 43.00 7.00 L 41.00 6.00 Z M 39.00 9.00 L 41.00 9.00 L 44.00 12.00 L 44.00 18.00 L 41.00 21.00 L 38.00 21.00 L 36.00 19.00 L 35.00 16.00 L 35.00 14.00 L 37.00 10.00 Z" fill="currentColor" fill-rule="evenodd" clip-rule="evenodd"/></svg>