<svg xmlns="http://www.w3.org/2000/svg" viewBox="0 0 96 96" fill="none"><path d="M 88.00 76.00 L 83.00 76.00 L 81.00 78.00 L 81.00 81.00 L 82.00 83.00 L 83.00 84.00 L 85.00 85.00 L 87.00 84.00 L 89.00 82.00 Z M 83.00 80.00 L 84.00 78.00 L 86.00 78.00 L 88.00 80.00 L 85.00 82.00 Z M 8.00 54.00 L 6.00 56.00 L 6.00 87.00 L 8.00 87.00 L 9.00 57.00 L 12.00 58.00 L 12.00 87.00 L 14.00 87.00 L 15.00 57.00 L 18.00 58.00 L 21.00 85.00 L 21.00 59.00 L 20.00 55.00 L 18.00 54.00 Z M 60.00 7.00 L 55.00 6.00 L 46.00 13.00 L 46.00 23.00 L 40.00 22.00 L 36.00 26.00 L 28.00 41.00 L 27.00 47.00 L 34.00 64.00 L 26.00 80.00 L 27.00 87.00 L 29.00 88.00 L 33.00 87.00 L 36.00 83.00 L 44.00 63.00 L 46.00 65.00 L 46.00 84.00 L 48.00 87.00 L 52.00 88.00 L 56.00 83.00 L 57.00 63.00 L 70.00 86.00 L 74.00 89.00 L 79.00 85.00 L 79.00 82.00 L 64.00 57.00 L 61.00 56.00 L 61.00 53.00 L 54.00 43.00 L 50.00 31.00 L 50.00 25.00 L 53.00 27.00 L 62.00 27.00 L 64.00 26.00 L 62.00 22.00 L 67.00 21.00 L 65.00 19.00 L 64.00 12.00 Z M 62.00 59.00 L 64.00 61.00 L 66.00 66.00 L 72.00 76.00 L 76.00 81.00 L 77.00 84.00 L 75.00 86.00 L 72.00 85.00 L 70.00 80.00 L 61.00 66.00 L 61.00 64.00 L 59.00 61.00 Z M 43.00 24.00 L 47.00 27.00 L 51.00 41.00 L 56.00 49.00 L 56.00 55.00 L 48.00 46.00 L 45.00 37.00 L 42.00 34.00 L 42.00 37.00 L 44.00 40.00 L 44.00 43.00 L 42.00 47.00 L 52.00 59.00 L 54.00 64.00 L 53.00 84.00 L 51.00 86.00 L 49.00 84.00 L 48.00 64.00 L 42.00 58.00 L 41.00 53.00 L 39.00 50.00 L 38.00 53.00 L 42.00 66.00 L 39.00 70.00 L 34.00 82.00 L 30.00 86.00 L 27.00 83.00 L 35.00 61.00 L 30.00 50.00 L 29.00 44.00 L 39.00 26.00 Z M 50.00 17.00 L 52.00 19.00 L 53.00 19.00 L 58.00 23.00 L 54.00 25.00 L 52.00 24.00 L 50.00 22.00 L 49.00 20.00 Z M 50.00 13.00 L 54.00 9.00 L 59.00 9.00 L 62.00 12.00 L 63.00 14.00 L 60.00 17.00 L 55.00 16.00 Z" fill="currentColor" fill-rule="evenodd" clip-rule="evenodd"/></svg>