<svg xmlns="http://www.w3.org/2000/svg" viewBox="0 0 96 96" fill="none"><path d="M 67.00 82.00 L 66.00 84.00 L 66.00 86.00 L 67.00 88.00 L 73.00 88.00 L 72.00 82.00 Z M 78.00 73.00 L 77.00 75.00 L 77.00 89.00 L 79.00 89.00 L 80.00 75.00 L 87.00 76.00 L 90.00 88.00 L 90.00 76.00 L 89.00 74.00 Z M 29.00 21.00 L 15.00 42.00 L 15.00 65.00 L 5.00 85.00 L 8.00 88.00 L 14.00 87.00 L 24.00 71.00 L 26.00 62.00 L 29.00 65.00 L 29.00 84.00 L 31.00 88.00 L 37.00 88.00 L 39.00 80.00 L 39.00 61.00 L 30.00 49.00 L 31.00 45.00 L 34.00 42.00 L 43.00 55.00 L 48.00 58.00 L 57.00 82.00 L 52.00 84.00 L 53.00 89.00 L 63.00 88.00 L 63.00 83.00 L 58.00 82.00 L 49.00 50.00 L 43.00 39.00 L 39.00 24.00 L 35.00 21.00 Z M 18.00 54.00 L 23.00 59.00 L 23.00 67.00 L 22.00 70.00 L 19.00 75.00 L 13.00 84.00 L 10.00 87.00 L 8.00 85.00 L 8.00 82.00 L 9.00 80.00 L 11.00 78.00 L 11.00 76.00 L 14.00 72.00 L 16.00 68.00 L 16.00 62.00 Z M 31.00 23.00 L 34.00 23.00 L 38.00 27.00 L 42.00 42.00 L 47.00 52.00 L 46.00 55.00 L 37.00 43.00 L 33.00 33.00 L 31.00 33.00 L 33.00 37.00 L 33.00 40.00 L 27.00 47.00 L 27.00 49.00 L 32.00 56.00 L 37.00 61.00 L 37.00 84.00 L 35.00 86.00 L 32.00 85.00 L 31.00 79.00 L 31.00 63.00 L 19.00 52.00 L 16.00 48.00 L 16.00 44.00 L 28.00 25.00 Z M 42.00 6.00 L 40.00 7.00 L 37.00 10.00 L 37.00 17.00 L 38.00 19.00 L 40.00 21.00 L 42.00 22.00 L 45.00 22.00 L 47.00 21.00 L 51.00 17.00 L 51.00 11.00 L 50.00 9.00 L 48.00 7.00 L 46.00 6.00 Z M 43.00 8.00 L 45.00 8.00 L 47.00 9.00 L 48.00 10.00 L 49.00 12.00 L 49.00 15.00 L 48.00 17.00 L 46.00 19.00 L 44.00 20.00 L 41.00 19.00 L 39.00 17.00 L 39.00 15.00 L 38.00 13.00 L 39.00 11.00 L 41.00 9.00 Z" fill="currentColor" fill-rule="evenodd" clip-rule="evenodd"/></svg>