<svg xmlns="http://www.w3.org/2000/svg" viewBox="0 0 96 96" fill="none"><path d="M 77.00 44.00 L 74.00 47.00 L 72.00 52.00 L 73.00 58.00 L 73.00 54.00 L 75.00 50.00 L 77.00 56.00 L 77.00 61.00 L 78.00 68.00 L 80.00 67.00 L 81.00 65.00 L 82.00 76.00 L 79.00 83.00 L 80.00 85.00 L 83.00 78.00 L 83.00 64.00 L 81.00 60.00 L 80.00 61.00 L 78.00 59.00 L 77.00 53.00 L 78.00 47.00 Z M 65.00 37.00 L 62.00 38.00 L 58.00 41.00 L 57.00 50.00 L 61.00 51.00 L 64.00 53.00 L 64.00 50.00 L 60.00 48.00 L 62.00 46.00 L 65.00 46.00 L 65.00 44.00 L 60.00 43.00 L 65.00 39.00 Z M 77.00 13.00 L 76.00 28.00 L 72.00 31.00 L 71.00 29.00 L 67.00 44.00 L 67.00 65.00 L 64.00 61.00 L 65.00 76.00 L 67.00 82.00 L 71.00 86.00 L 65.00 71.00 L 66.00 67.00 L 67.00 69.00 L 71.00 69.00 L 68.00 59.00 L 68.00 46.00 L 72.00 35.00 L 74.00 38.00 L 79.00 18.00 L 83.00 31.00 L 82.00 46.00 L 86.00 41.00 L 88.00 43.00 L 88.00 60.00 L 86.00 69.00 L 90.00 70.00 L 84.00 83.00 L 85.00 85.00 L 91.00 71.00 L 91.00 62.00 L 89.00 64.00 L 88.00 62.00 L 88.00 36.00 L 86.00 34.00 L 85.00 37.00 L 83.00 23.00 L 80.00 15.00 Z M 40.00 6.00 L 36.00 9.00 L 31.00 19.00 L 35.00 21.00 L 27.00 31.00 L 23.00 52.00 L 4.00 79.00 L 9.00 77.00 L 24.00 54.00 L 33.00 49.00 L 36.00 52.00 L 29.00 54.00 L 22.00 60.00 L 12.00 78.00 L 5.00 83.00 L 4.00 86.00 L 12.00 81.00 L 20.00 67.00 L 22.00 74.00 L 25.00 77.00 L 18.00 77.00 L 18.00 88.00 L 32.00 87.00 L 34.00 74.00 L 36.00 74.00 L 37.00 68.00 L 40.00 72.00 L 41.00 87.00 L 44.00 89.00 L 47.00 85.00 L 45.00 62.00 L 40.00 57.00 L 39.00 53.00 L 42.00 52.00 L 43.00 54.00 L 48.00 53.00 L 50.00 50.00 L 55.00 50.00 L 54.00 42.00 L 51.00 44.00 L 45.00 44.00 L 41.00 41.00 L 40.00 30.00 L 44.00 25.00 L 44.00 21.00 L 47.00 19.00 L 44.00 9.00 Z M 32.00 76.00 L 32.00 83.00 L 29.00 86.00 L 18.00 85.00 L 18.00 81.00 L 20.00 79.00 L 27.00 79.00 L 28.00 75.00 Z M 38.00 58.00 L 44.00 64.00 L 45.00 69.00 L 46.00 84.00 L 42.00 85.00 L 41.00 79.00 L 41.00 71.00 L 40.00 68.00 L 38.00 66.00 L 37.00 66.00 L 36.00 60.00 Z M 31.00 56.00 L 32.00 61.00 L 30.00 63.00 L 27.00 63.00 L 27.00 66.00 L 32.00 66.00 L 32.00 64.00 L 33.00 63.00 L 34.00 58.00 L 34.00 72.00 L 29.00 73.00 L 24.00 72.00 L 22.00 70.00 L 22.00 65.00 L 24.00 61.00 L 26.00 59.00 Z M 46.00 46.00 L 48.00 49.00 L 46.00 51.00 L 44.00 48.00 Z M 32.00 27.00 L 35.00 27.00 L 38.00 30.00 L 39.00 32.00 L 39.00 38.00 L 40.00 44.00 L 42.00 45.00 L 42.00 50.00 L 40.00 50.00 L 37.00 47.00 L 36.00 44.00 L 36.00 41.00 L 34.00 37.00 L 35.00 45.00 L 33.00 47.00 L 31.00 48.00 L 29.00 48.00 L 25.00 51.00 L 24.00 47.00 L 25.00 46.00 L 25.00 42.00 L 28.00 33.00 L 30.00 29.00 Z M 41.00 19.00 L 43.00 21.00 L 43.00 23.00 L 42.00 25.00 L 39.00 28.00 L 37.00 26.00 L 36.00 24.00 L 37.00 20.00 L 39.00 19.00 Z M 39.00 9.00 L 41.00 9.00 L 43.00 11.00 L 44.00 13.00 L 43.00 17.00 L 35.00 16.00 L 36.00 12.00 Z" fill="currentColor" fill-rule="evenodd" clip-rule="evenodd"/></svg>