<svg xmlns="http://www.w3.org/2000/svg" viewBox="0 0 96 96" fill="none"><path d="M 76.00 27.00 L 74.00 25.00 L 70.00 25.00 L 55.00 31.00 L 41.00 24.00 L 33.00 22.00 L 20.00 28.00 L 10.00 46.00 L 10.00 51.00 L 12.00 53.00 L 16.00 52.00 L 23.00 39.00 L 26.00 36.00 L 29.00 37.00 L 24.00 47.00 L 19.00 65.00 L 5.00 81.00 L 5.00 86.00 L 8.00 89.00 L 11.00 89.00 L 25.00 75.00 L 31.00 62.00 L 35.00 62.00 L 40.00 67.00 L 40.00 86.00 L 43.00 89.00 L 47.00 88.00 L 51.00 70.00 L 51.00 63.00 L 40.00 51.00 L 42.00 43.00 L 45.00 38.00 L 52.00 41.00 L 62.00 40.00 L 75.00 33.00 Z M 74.00 28.00 L 73.00 31.00 L 58.00 39.00 L 54.00 39.00 L 44.00 35.00 L 37.00 49.00 L 37.00 51.00 L 49.00 64.00 L 47.00 84.00 L 44.00 87.00 L 42.00 85.00 L 43.00 67.00 L 34.00 58.00 L 31.00 57.00 L 25.00 71.00 L 9.00 87.00 L 7.00 85.00 L 7.00 82.00 L 21.00 66.00 L 26.00 47.00 L 32.00 35.00 L 32.00 31.00 L 23.00 35.00 L 16.00 48.00 L 12.00 49.00 L 13.00 44.00 L 21.00 30.00 L 32.00 25.00 L 37.00 25.00 L 54.00 33.00 L 59.00 33.00 L 69.00 28.00 Z M 82.00 15.00 L 81.00 17.00 L 81.00 21.00 L 82.00 23.00 L 84.00 25.00 L 86.00 25.00 L 88.00 24.00 L 90.00 22.00 L 90.00 17.00 L 88.00 14.00 Z M 86.00 16.00 L 88.00 18.00 L 87.00 22.00 L 83.00 21.00 L 83.00 18.00 Z M 45.00 6.00 L 44.00 7.00 L 42.00 7.00 L 40.00 9.00 L 39.00 11.00 L 39.00 19.00 L 41.00 22.00 L 43.00 23.00 L 48.00 23.00 L 50.00 22.00 L 52.00 18.00 L 52.00 11.00 L 51.00 9.00 L 49.00 7.00 L 47.00 6.00 Z M 44.00 9.00 L 47.00 9.00 L 50.00 12.00 L 51.00 14.00 L 51.00 16.00 L 50.00 18.00 L 47.00 21.00 L 44.00 21.00 L 41.00 18.00 L 41.00 12.00 Z" fill="currentColor" fill-rule="evenodd" clip-rule="evenodd"/></svg>