<svg xmlns="http://www.w3.org/2000/svg" viewBox="0 0 96 96" fill="none"><path d="M 16.00 82.00 L 16.00 85.00 L 19.00 87.00 L 25.00 87.00 L 31.00 83.00 L 37.00 87.00 L 43.00 87.00 L 49.00 83.00 L 51.00 84.00 L 54.00 87.00 L 60.00 87.00 L 67.00 83.00 L 73.00 87.00 L 77.00 87.00 L 80.00 85.00 L 80.00 81.00 L 77.00 84.00 L 73.00 84.00 L 69.00 81.00 L 63.00 81.00 L 60.00 84.00 L 57.00 85.00 L 51.00 81.00 L 46.00 81.00 L 43.00 84.00 L 41.00 85.00 L 39.00 85.00 L 33.00 81.00 L 28.00 81.00 L 22.00 85.00 Z M 4.00 49.00 L 4.00 52.00 L 14.00 52.00 L 14.00 49.00 Z M 5.00 43.00 L 18.00 40.00 L 5.00 40.00 Z M 37.00 8.00 L 34.00 11.00 L 34.00 22.00 L 36.00 25.00 L 30.00 29.00 L 26.00 49.00 L 19.00 51.00 L 17.00 53.00 L 15.00 68.00 L 8.00 72.00 L 7.00 76.00 L 11.00 73.00 L 16.00 73.00 L 20.00 76.00 L 24.00 76.00 L 32.00 72.00 L 38.00 76.00 L 42.00 76.00 L 49.00 72.00 L 56.00 76.00 L 59.00 76.00 L 67.00 71.00 L 73.00 75.00 L 80.00 75.00 L 83.00 73.00 L 83.00 69.00 L 78.00 73.00 L 76.00 73.00 L 68.00 68.00 L 83.00 50.00 L 91.00 32.00 L 90.00 28.00 L 72.00 32.00 L 65.00 35.00 L 53.00 30.00 L 45.00 37.00 L 40.00 32.00 L 38.00 26.00 L 42.00 22.00 L 42.00 11.00 L 39.00 8.00 Z M 84.00 44.00 L 78.00 54.00 L 62.00 71.00 L 59.00 73.00 L 56.00 73.00 L 50.00 69.00 L 47.00 69.00 L 45.00 70.00 L 42.00 73.00 L 38.00 73.00 L 35.00 71.00 L 34.00 67.00 L 37.00 66.00 L 39.00 64.00 L 52.00 57.00 L 56.00 56.00 L 58.00 54.00 L 60.00 54.00 L 69.00 48.00 L 71.00 48.00 L 73.00 46.00 L 75.00 46.00 L 77.00 44.00 L 79.00 44.00 L 81.00 42.00 Z M 59.00 36.00 L 53.00 39.00 L 50.00 39.00 L 45.00 40.00 L 47.00 38.00 L 52.00 34.00 L 54.00 33.00 L 56.00 34.00 Z M 88.00 33.00 L 88.00 35.00 L 83.00 39.00 L 73.00 43.00 L 56.00 53.00 L 54.00 53.00 L 52.00 55.00 L 50.00 55.00 L 28.00 67.00 L 21.00 72.00 L 17.00 71.00 L 16.00 66.00 L 17.00 65.00 L 17.00 60.00 L 18.00 56.00 L 23.00 52.00 L 44.00 44.00 L 59.00 40.00 L 62.00 38.00 L 72.00 35.00 L 80.00 34.00 L 83.00 32.00 Z M 35.00 29.00 L 37.00 31.00 L 41.00 36.00 L 42.00 38.00 L 42.00 40.00 L 40.00 42.00 L 37.00 39.00 L 35.00 39.00 L 35.00 44.00 L 33.00 46.00 L 31.00 47.00 L 28.00 46.00 L 30.00 35.00 L 31.00 32.00 L 32.00 30.00 Z M 36.00 12.00 L 40.00 12.00 L 41.00 14.00 L 41.00 20.00 L 38.00 23.00 L 35.00 20.00 L 35.00 14.00 Z" fill="currentColor" fill-rule="evenodd" clip-rule="evenodd"/></svg>