<svg xmlns="http://www.w3.org/2000/svg" viewBox="0 0 96 96" fill="none"><path d="M 77.00 39.00 L 77.00 44.00 L 80.00 46.00 L 84.00 46.00 L 86.00 45.00 L 86.00 38.00 L 84.00 37.00 L 80.00 37.00 Z M 81.00 39.00 L 83.00 39.00 L 85.00 42.00 L 83.00 44.00 L 80.00 43.00 Z M 86.00 7.00 L 76.00 6.00 L 72.00 8.00 L 66.00 17.00 L 67.00 28.00 L 65.00 32.00 L 50.00 35.00 L 36.00 26.00 L 43.00 24.00 L 47.00 20.00 L 47.00 14.00 L 42.00 10.00 L 35.00 10.00 L 31.00 13.00 L 31.00 22.00 L 37.00 25.00 L 27.00 30.00 L 18.00 49.00 L 17.00 70.00 L 7.00 83.00 L 7.00 86.00 L 10.00 89.00 L 17.00 88.00 L 29.00 74.00 L 31.00 61.00 L 40.00 68.00 L 43.00 86.00 L 46.00 89.00 L 53.00 88.00 L 54.00 81.00 L 52.00 63.00 L 36.00 50.00 L 40.00 42.00 L 48.00 44.00 L 56.00 43.00 L 59.00 45.00 L 61.00 42.00 L 66.00 40.00 L 67.00 33.00 L 71.00 29.00 L 84.00 23.00 L 87.00 19.00 L 88.00 10.00 Z M 65.00 37.00 L 63.00 39.00 L 51.00 42.00 L 48.00 42.00 L 44.00 39.00 L 36.00 38.00 L 38.00 39.00 L 38.00 41.00 L 34.00 48.00 L 35.00 53.00 L 49.00 64.00 L 52.00 85.00 L 50.00 87.00 L 48.00 87.00 L 45.00 83.00 L 42.00 66.00 L 31.00 58.00 L 28.00 58.00 L 27.00 69.00 L 24.00 76.00 L 14.00 87.00 L 10.00 86.00 L 10.00 83.00 L 19.00 72.00 L 20.00 52.00 L 29.00 32.00 L 32.00 29.00 L 38.00 29.00 L 50.00 37.00 L 60.00 35.00 Z M 32.00 16.00 L 36.00 12.00 L 41.00 12.00 L 43.00 13.00 L 44.00 14.00 L 45.00 16.00 L 45.00 18.00 L 44.00 20.00 L 43.00 21.00 L 41.00 22.00 L 36.00 22.00 L 34.00 21.00 L 33.00 20.00 L 32.00 18.00 Z M 84.00 9.00 L 85.00 12.00 L 85.00 17.00 L 82.00 20.00 L 82.00 21.00 L 80.00 23.00 L 76.00 25.00 L 72.00 25.00 L 69.00 22.00 L 69.00 17.00 L 71.00 13.00 L 75.00 9.00 L 77.00 8.00 L 82.00 8.00 Z" fill="currentColor" fill-rule="evenodd" clip-rule="evenodd"/></svg>