<svg xmlns="http://www.w3.org/2000/svg" viewBox="0 0 96 96" fill="none"><path d="M 88.00 38.00 L 85.00 36.00 L 82.00 37.00 L 78.00 34.00 L 76.00 28.00 L 60.00 20.00 L 43.00 18.00 L 34.00 19.00 L 18.00 34.00 L 20.00 40.00 L 27.00 40.00 L 40.00 29.00 L 47.00 31.00 L 35.00 48.00 L 34.00 55.00 L 29.00 64.00 L 7.00 81.00 L 7.00 86.00 L 11.00 89.00 L 19.00 87.00 L 37.00 75.00 L 45.00 64.00 L 55.00 68.00 L 43.00 80.00 L 45.00 86.00 L 52.00 86.00 L 72.00 68.00 L 71.00 63.00 L 57.00 53.00 L 57.00 50.00 L 80.00 50.00 L 88.00 43.00 Z M 40.00 61.00 L 42.00 64.00 L 38.00 70.00 L 34.00 74.00 L 22.00 82.00 L 13.00 87.00 L 11.00 86.00 L 9.00 83.00 L 13.00 79.00 L 20.00 74.00 L 23.00 73.00 L 27.00 70.00 L 30.00 67.00 L 35.00 58.00 Z M 83.00 38.00 L 86.00 41.00 L 79.00 48.00 L 76.00 46.00 L 79.00 42.00 Z M 77.00 36.00 L 78.00 39.00 L 77.00 41.00 L 75.00 43.00 L 75.00 44.00 L 74.00 45.00 L 73.00 45.00 L 71.00 47.00 L 69.00 48.00 L 65.00 49.00 L 61.00 49.00 L 59.00 48.00 L 58.00 46.00 L 60.00 42.00 L 64.00 38.00 L 68.00 36.00 L 71.00 35.00 L 75.00 35.00 Z M 37.00 20.00 L 59.00 22.00 L 61.00 24.00 L 73.00 29.00 L 75.00 32.00 L 64.00 35.00 L 58.00 40.00 L 56.00 44.00 L 56.00 47.00 L 53.00 50.00 L 51.00 50.00 L 52.00 53.00 L 66.00 62.00 L 69.00 65.00 L 69.00 68.00 L 49.00 85.00 L 47.00 84.00 L 46.00 80.00 L 59.00 68.00 L 58.00 66.00 L 39.00 58.00 L 36.00 53.00 L 51.00 29.00 L 38.00 27.00 L 27.00 37.00 L 23.00 39.00 L 20.00 36.00 Z M 68.00 7.00 L 65.00 10.00 L 65.00 18.00 L 69.00 22.00 L 77.00 22.00 L 79.00 21.00 L 82.00 18.00 L 82.00 11.00 L 81.00 9.00 L 79.00 7.00 L 76.00 6.00 L 70.00 6.00 Z M 72.00 8.00 L 75.00 8.00 L 77.00 9.00 L 80.00 12.00 L 80.00 16.00 L 76.00 20.00 L 71.00 20.00 L 68.00 17.00 L 67.00 15.00 L 67.00 12.00 L 70.00 9.00 Z" fill="currentColor" fill-rule="evenodd" clip-rule="evenodd"/></svg>