<svg xmlns="http://www.w3.org/2000/svg" viewBox="0 0 96 96" fill="none"><path d="M 42.00 6.00 L 38.00 8.00 L 34.00 8.00 L 24.00 13.00 L 13.00 24.00 L 8.00 34.00 L 6.00 43.00 L 6.00 52.00 L 9.00 63.00 L 12.00 69.00 L 21.00 79.00 L 30.00 85.00 L 50.00 89.00 L 65.00 85.00 L 72.00 81.00 L 81.00 72.00 L 87.00 61.00 L 87.00 57.00 L 89.00 53.00 L 89.00 43.00 L 86.00 32.00 L 82.00 24.00 L 75.00 16.00 L 61.00 8.00 L 53.00 6.00 Z M 75.00 20.00 L 80.00 26.00 L 84.00 33.00 L 86.00 41.00 L 86.00 54.00 L 85.00 59.00 L 80.00 69.00 L 76.00 73.00 L 73.00 70.00 L 73.00 66.00 L 71.00 68.00 L 69.00 66.00 L 71.00 64.00 L 71.00 62.00 L 68.00 63.00 L 66.00 60.00 L 69.00 58.00 L 69.00 56.00 L 66.00 57.00 L 64.00 55.00 L 64.00 53.00 L 66.00 52.00 L 67.00 50.00 L 63.00 49.00 L 64.00 45.00 L 67.00 45.00 L 67.00 43.00 L 63.00 42.00 L 65.00 37.00 L 68.00 38.00 L 68.00 36.00 L 65.00 34.00 L 67.00 31.00 L 70.00 32.00 L 70.00 30.00 L 68.00 28.00 L 70.00 26.00 L 74.00 26.00 L 72.00 24.00 L 73.00 21.00 Z M 20.00 20.00 L 23.00 24.00 L 21.00 26.00 L 25.00 26.00 L 27.00 28.00 L 24.00 31.00 L 28.00 32.00 L 30.00 34.00 L 27.00 36.00 L 27.00 38.00 L 30.00 37.00 L 30.00 43.00 L 28.00 43.00 L 28.00 45.00 L 31.00 46.00 L 30.00 50.00 L 28.00 50.00 L 28.00 52.00 L 30.00 55.00 L 29.00 57.00 L 26.00 56.00 L 26.00 58.00 L 28.00 59.00 L 28.00 61.00 L 26.00 63.00 L 23.00 63.00 L 24.00 67.00 L 21.00 66.00 L 20.00 68.00 L 22.00 70.00 L 19.00 73.00 L 14.00 67.00 L 10.00 58.00 L 9.00 54.00 L 9.00 41.00 L 11.00 33.00 L 13.00 31.00 L 13.00 29.00 Z M 36.00 10.00 L 56.00 9.00 L 66.00 13.00 L 72.00 18.00 L 69.00 22.00 L 68.00 20.00 L 66.00 20.00 L 67.00 25.00 L 65.00 27.00 L 62.00 26.00 L 63.00 32.00 L 62.00 34.00 L 59.00 33.00 L 59.00 35.00 L 62.00 37.00 L 62.00 40.00 L 58.00 42.00 L 58.00 44.00 L 61.00 46.00 L 60.00 51.00 L 58.00 51.00 L 58.00 53.00 L 62.00 54.00 L 63.00 58.00 L 61.00 59.00 L 61.00 61.00 L 65.00 62.00 L 65.00 65.00 L 63.00 67.00 L 67.00 67.00 L 69.00 70.00 L 68.00 74.00 L 71.00 72.00 L 74.00 75.00 L 67.00 81.00 L 58.00 85.00 L 43.00 86.00 L 34.00 84.00 L 21.00 75.00 L 24.00 72.00 L 28.00 73.00 L 26.00 69.00 L 28.00 67.00 L 31.00 68.00 L 29.00 64.00 L 30.00 62.00 L 34.00 61.00 L 33.00 56.00 L 34.00 53.00 L 37.00 53.00 L 36.00 51.00 L 33.00 50.00 L 34.00 46.00 L 37.00 44.00 L 37.00 42.00 L 33.00 41.00 L 33.00 37.00 L 36.00 33.00 L 33.00 34.00 L 30.00 30.00 L 33.00 26.00 L 30.00 27.00 L 28.00 25.00 L 29.00 20.00 L 24.00 20.00 L 23.00 18.00 L 27.00 14.00 Z" fill="currentColor" fill-rule="evenodd" clip-rule="evenodd"/></svg>