<svg xmlns="http://www.w3.org/2000/svg" viewBox="0 0 96 96" fill="none"><path d="M 87.00 10.00 L 83.00 10.00 L 80.00 17.00 L 86.00 27.00 L 74.00 44.00 L 69.00 30.00 L 70.00 16.00 L 64.00 17.00 L 63.00 25.00 L 68.00 32.00 L 57.00 45.00 L 39.00 45.00 L 27.00 31.00 L 32.00 27.00 L 31.00 16.00 L 25.00 17.00 L 27.00 30.00 L 22.00 44.00 L 12.00 28.00 L 6.00 27.00 L 5.00 56.00 L 14.00 71.00 L 9.00 87.00 L 17.00 71.00 L 23.00 86.00 L 28.00 84.00 L 16.00 49.00 L 22.00 49.00 L 24.00 61.00 L 35.00 72.00 L 40.00 87.00 L 36.00 70.00 L 25.00 58.00 L 26.00 48.00 L 31.00 49.00 L 44.00 86.00 L 33.00 51.00 L 58.00 49.00 L 63.00 52.00 L 50.00 86.00 L 65.00 50.00 L 71.00 49.00 L 70.00 59.00 L 59.00 71.00 L 56.00 87.00 L 72.00 54.00 L 80.00 51.00 L 69.00 74.00 L 69.00 87.00 L 77.00 73.00 L 86.00 87.00 L 80.00 69.00 L 90.00 57.00 Z M 71.00 36.00 L 72.00 39.00 L 72.00 42.00 L 71.00 43.00 L 70.00 45.00 L 69.00 42.00 L 67.00 43.00 L 64.00 47.00 L 62.00 47.00 L 60.00 45.00 L 63.00 44.00 L 64.00 43.00 L 65.00 41.00 L 65.00 39.00 L 67.00 37.00 L 67.00 36.00 Z M 24.00 37.00 L 27.00 35.00 L 30.00 38.00 L 31.00 41.00 L 33.00 44.00 L 37.00 47.00 L 32.00 47.00 L 29.00 43.00 L 26.00 42.00 L 25.00 45.00 Z M 87.00 30.00 L 89.00 32.00 L 89.00 52.00 L 88.00 57.00 L 87.00 59.00 L 78.00 67.00 L 75.00 72.00 L 75.00 75.00 L 73.00 77.00 L 72.00 82.00 L 70.00 84.00 L 69.00 81.00 L 71.00 77.00 L 71.00 73.00 L 73.00 71.00 L 74.00 68.00 L 74.00 65.00 L 75.00 63.00 L 82.00 55.00 L 82.00 47.00 L 86.00 42.00 L 86.00 38.00 L 84.00 40.00 L 82.00 44.00 L 79.00 47.00 L 76.00 48.00 L 75.00 46.00 L 80.00 42.00 L 82.00 36.00 Z M 9.00 29.00 L 11.00 31.00 L 13.00 35.00 L 14.00 39.00 L 16.00 42.00 L 19.00 44.00 L 19.00 47.00 L 17.00 47.00 L 13.00 44.00 L 10.00 38.00 L 8.00 39.00 L 13.00 47.00 L 13.00 54.00 L 17.00 58.00 L 22.00 66.00 L 26.00 79.00 L 25.00 84.00 L 23.00 81.00 L 19.00 69.00 L 8.00 58.00 L 7.00 56.00 L 6.00 50.00 L 6.00 31.00 Z M 68.00 18.00 L 70.00 20.00 L 70.00 24.00 L 69.00 26.00 L 67.00 27.00 L 65.00 25.00 L 65.00 20.00 Z M 29.00 18.00 L 31.00 20.00 L 31.00 25.00 L 28.00 27.00 L 26.00 25.00 L 26.00 20.00 Z M 83.00 14.00 L 87.00 14.00 L 88.00 16.00 L 88.00 19.00 L 86.00 23.00 L 84.00 23.00 L 82.00 21.00 L 82.00 16.00 Z M 9.00 8.00 L 7.00 9.00 L 7.00 11.00 L 6.00 12.00 L 6.00 20.00 L 8.00 24.00 L 13.00 23.00 L 15.00 19.00 L 15.00 13.00 L 13.00 9.00 Z M 10.00 10.00 L 13.00 13.00 L 13.00 19.00 L 10.00 22.00 L 8.00 20.00 L 7.00 16.00 L 8.00 13.00 L 9.00 12.00 Z" fill="currentColor" fill-rule="evenodd" clip-rule="evenodd"/></svg>