<svg xmlns="http://www.w3.org/2000/svg" width="444" height="1315" viewBox="0 0 444 1315" version="1.1">
	<path d="M 208.500 9.267 C 201.830 10.877, 198.873 12.226, 199.341 13.446 C 199.779 14.588, 194.283 17.682, 192.676 17.198 C 192.222 17.062, 192.091 17.338, 192.384 17.813 C 192.677 18.287, 191.053 20.436, 188.775 22.587 C 184.882 26.264, 184.737 26.319, 186.375 23.500 L 188.119 20.500 186.109 22.799 C 184.952 24.124, 184.363 25.782, 184.720 26.713 C 185.108 27.725, 184.938 28.080, 184.263 27.663 C 183.572 27.236, 183.381 27.741, 183.730 29.074 C 184.135 30.624, 183.296 31.956, 180.421 34.325 C 178.303 36.071, 176.381 37.353, 176.149 37.174 C 175.918 36.995, 174.777 38.455, 173.614 40.420 C 172.451 42.385, 169.787 46.690, 167.694 49.987 C 165.601 53.284, 163.736 56.775, 163.549 57.745 C 163.362 58.714, 162.713 61.354, 162.105 63.610 C 160.046 71.258, 158.589 97.748, 160.050 101 C 160.420 101.825, 161.016 103.726, 161.374 105.223 C 161.871 107.303, 161.698 107.821, 160.641 107.416 C 159.111 106.828, 155.986 109.472, 156.024 111.321 C 156.038 111.970, 156.517 114.525, 157.088 117 C 159.305 126.598, 161.003 138.190, 160.357 139.318 C 159.984 139.968, 160.033 140.181, 160.466 139.790 C 160.899 139.400, 162.223 140.525, 163.409 142.290 C 164.897 144.507, 166.491 145.592, 168.562 145.797 C 171.387 146.077, 171.628 146.450, 172.728 152.239 C 173.370 155.619, 175.382 161.312, 177.198 164.890 C 180.500 171.394, 180.500 171.396, 180.500 186.447 C 180.500 200.206, 180.299 201.908, 178.161 206.249 C 174.179 214.336, 162.960 222.874, 157.325 222.107 C 156.679 222.019, 155.869 222.404, 155.523 222.962 C 155.155 223.559, 155.536 223.732, 156.448 223.382 C 157.302 223.054, 158 223.021, 158 223.308 C 158 224.069, 148.958 229, 147.563 229 C 146.911 229, 145.359 229.949, 144.114 231.109 C 140.191 234.763, 126.087 240.233, 118 241.237 C 113.875 241.749, 106.900 243.310, 102.500 244.705 C 80.313 251.738, 72.071 259.497, 65.077 279.935 C 58.875 298.056, 56.803 314.956, 57.640 340.587 C 58.199 357.700, 58.103 359.013, 55.493 370 C 50.707 390.145, 49.227 399.003, 47.053 420.500 C 44.752 443.267, 43.320 449.392, 36.324 466.404 C 26.223 490.965, 23.771 508.798, 20.982 578 C 19.818 606.860, 18.493 624.814, 16.974 632.299 C 16.438 634.939, 15.996 641.464, 15.992 646.799 C 15.981 659.442, 12.564 686.242, 9.303 699.258 C 7.629 705.943, 7.635 706.074, 9.910 711.258 C 11.174 714.141, 12.874 718.750, 13.687 721.500 C 20.451 744.384, 19.769 742.830, 24.285 745.664 C 26.603 747.119, 30.525 750.086, 33 752.257 C 35.475 754.429, 39.300 757.111, 41.500 758.219 C 43.700 759.327, 46.288 760.925, 47.250 761.771 C 48.831 763.162, 49.189 763.139, 50.963 761.534 C 52.042 760.557, 53.574 760.006, 54.366 760.310 C 57.460 761.498, 58.878 758.775, 58.685 752.012 L 58.500 745.525 54.500 743.512 C 51.169 741.837, 50.500 740.998, 50.500 738.500 C 50.500 735.949, 49.829 735.162, 46.018 733.240 C 40.091 730.251, 37.998 728.024, 35.882 722.449 C 34.604 719.081, 34.379 717.134, 35.061 715.340 C 35.577 713.982, 36.004 710.762, 36.008 708.185 C 36.015 704.078, 36.348 703.346, 38.708 702.250 C 40.338 701.493, 41.761 701.361, 42.316 701.916 C 42.819 702.419, 43.627 706.807, 44.109 711.666 C 44.592 716.525, 45.270 721.850, 45.616 723.500 C 46.538 727.903, 49.674 733.661, 51.539 734.377 C 54.345 735.453, 57.707 735.058, 59 733.500 C 60.550 731.632, 60.600 718.234, 59.084 710.833 C 58.484 707.900, 57.749 698.525, 57.451 690 C 56.820 671.915, 56.633 669.033, 56.124 669.543 C 55.917 669.750, 53.684 666, 51.162 661.209 C 46.693 652.723, 46.580 652.286, 46.752 644.132 C 46.850 639.448, 47.854 632.183, 49.033 627.632 C 51.135 619.509, 61.020 589.369, 73.345 553.500 C 79.223 536.393, 83.577 522.056, 89.137 501.500 C 90.179 497.650, 91.471 488.200, 92.009 480.500 C 93.193 463.532, 93.934 459.524, 99.268 441.190 C 102.266 430.886, 103.655 427.386, 104.231 428.690 C 104.825 430.034, 104.911 429.857, 104.564 428 C 103.983 424.893, 109.417 402.936, 110.255 405 C 110.590 405.825, 110.668 405.150, 110.427 403.500 C 110.186 401.850, 110.850 396.900, 111.903 392.500 C 112.957 388.100, 113.859 385.462, 113.909 386.638 C 114.071 390.438, 119.024 406.224, 120.895 408.901 C 121.894 410.330, 122.770 412.175, 122.841 413 C 123.103 416.034, 126.960 432.563, 127.858 434.500 C 130.272 439.707, 134.499 467.840, 134.468 478.500 C 134.434 490.340, 134.399 490.475, 124.522 515.857 C 122.519 521.003, 120.621 527.528, 120.303 530.357 C 119.985 533.186, 119.382 535.950, 118.962 536.500 C 118.542 537.050, 116.995 541.100, 115.525 545.500 C 114.054 549.900, 112.250 554.175, 111.517 555 C 108.446 558.455, 99.113 589.883, 95.035 610.500 C 92.751 622.050, 89.570 636.450, 87.966 642.500 C 82.931 661.496, 78.975 682.043, 78.533 691.500 C 78.379 694.800, 77.680 703.989, 76.980 711.919 C 76.071 722.221, 75.880 737.354, 76.313 764.919 C 77.051 812.005, 78.641 828.800, 85.469 861.686 C 88.209 874.880, 88.477 881.087, 86.972 896.500 C 86.435 902, 85.535 912.547, 84.971 919.938 C 83.853 934.610, 82.169 942.279, 75.407 963.500 C 61.318 1007.710, 60.993 1032.078, 72.976 1145.500 C 76.030 1174.405, 76.132 1176.170, 75.140 1183.093 C 74.453 1187.886, 73.507 1190.429, 71.675 1192.406 C 70.289 1193.901, 68.850 1196.928, 68.478 1199.131 C 67.937 1202.331, 67.469 1203.003, 66.150 1202.470 C 62.711 1201.079, 57.206 1200.820, 55.096 1201.948 C 50.056 1204.646, 50.558 1212.252, 55.909 1214.272 L 58.799 1215.363 55.150 1218.074 C 53.142 1219.566, 49.925 1222.180, 48 1223.883 C 44.638 1226.858, 44.575 1227.039, 46.397 1228.458 C 48.277 1229.922, 50.503 1229.623, 49.524 1228.038 C 49.244 1227.585, 51.991 1225.348, 55.630 1223.067 C 60.305 1220.135, 62.027 1219.444, 61.500 1220.709 C 61.089 1221.694, 60.355 1224.506, 59.868 1226.959 C 59.381 1229.411, 58.536 1231.864, 57.991 1232.409 C 57.446 1232.954, 57 1234.212, 57 1235.204 C 57 1238.142, 49.997 1250.467, 44.196 1257.738 C 37.084 1266.653, 35.881 1269.166, 35.255 1276.412 C 34.965 1279.760, 34.114 1283.715, 33.364 1285.200 C 31.160 1289.563, 31.638 1295.416, 34.472 1298.784 C 35.832 1300.400, 36.769 1301.897, 36.555 1302.111 C 36.342 1302.325, 37.367 1302.540, 38.833 1302.589 C 40.300 1302.638, 46.900 1303.259, 53.500 1303.970 C 66.856 1305.408, 87.756 1304.911, 95.279 1302.977 C 97.908 1302.301, 101.431 1300.465, 103.109 1298.898 C 106.065 1296.137, 106.149 1295.812, 105.830 1288.478 C 105.509 1281.109, 105.567 1280.892, 108 1280.326 C 113.154 1279.128, 122.044 1273.664, 124.007 1270.489 C 126.441 1266.550, 126.565 1260.509, 124.365 1253 C 123.427 1249.799, 122.432 1241.020, 121.984 1232 C 121.382 1219.868, 120.757 1215.357, 119.107 1211.239 C 117.948 1208.346, 117 1204.280, 117 1202.205 C 117 1200.129, 116.100 1195.870, 115 1192.740 C 111.379 1182.438, 112.452 1172.111, 121 1135 C 122.710 1127.575, 124.789 1117.900, 125.621 1113.500 C 129.559 1092.657, 137.416 1067.622, 139.225 1070.152 C 139.962 1071.183, 140.061 1071.100, 139.644 1069.798 C 139.345 1068.862, 140.657 1063.473, 142.560 1057.821 C 148.903 1038.987, 149.482 1034.026, 149.226 1000.693 C 148.968 967.140, 149.490 962.791, 155.520 948.246 C 168.631 916.615, 171.248 906.676, 175.457 872.500 C 176.880 860.950, 178.962 846.775, 180.084 841 C 182.192 830.143, 192.572 796.958, 193.803 797.136 C 195.696 797.410, 196.349 796.874, 195.092 796.078 C 193.929 795.342, 194.488 792.860, 198.293 781.843 C 207.132 756.250, 210.672 737.504, 211.510 711.841 C 211.997 696.943, 212.085 696.435, 214.561 694.250 C 217.803 691.390, 221.181 691.390, 224.499 694.250 C 227.083 696.477, 227.114 696.673, 227.561 713.406 C 227.900 726.103, 228.641 733.415, 230.536 742.774 C 231.924 749.629, 232.794 756.075, 232.469 757.098 C 232.144 758.122, 232.362 759.756, 232.953 760.730 C 233.827 762.169, 233.924 761.939, 233.473 759.500 C 233.168 757.850, 235.385 763.891, 238.400 772.924 C 241.998 783.707, 243.695 790.277, 243.339 792.053 C 243.042 793.540, 243.252 795.038, 243.806 795.380 C 244.413 795.756, 244.625 795.109, 244.338 793.751 C 243.264 788.666, 245.936 795.036, 250.524 808.500 C 253.557 817.400, 255.311 824.277, 255.340 827.377 C 255.366 830.196, 255.661 831.467, 256.039 830.389 C 257.034 827.553, 259.523 840.117, 263.490 868 C 269.191 908.068, 271.748 918.561, 280.583 938.145 C 285.347 948.705, 287.069 957.663, 284.637 959.235 C 283.928 959.693, 284.200 959.975, 285.361 959.985 C 286.951 959.998, 287.137 959.453, 286.638 956.250 C 286.125 952.960, 286.317 953.175, 288.203 958 C 290.210 963.136, 290.399 965.949, 291.054 1000.500 C 291.772 1038.369, 291.916 1039.774, 296.564 1054.297 C 297.937 1058.585, 298.749 1062.635, 298.370 1063.297 C 297.990 1063.959, 298.060 1064.154, 298.526 1063.730 C 299.709 1062.655, 303.266 1071.509, 307.945 1087.176 C 311.770 1099.985, 323.573 1155.024, 326.011 1171.419 C 327.289 1180.014, 326.632 1188.877, 324.397 1193.199 C 323.629 1194.685, 323 1197.881, 323 1200.301 C 323 1205.524, 321.082 1211.750, 320.008 1210.013 C 319.597 1209.348, 319.283 1210.070, 319.289 1211.666 C 319.294 1213.225, 318.732 1217.200, 318.038 1220.500 C 317.276 1224.129, 316.989 1229.859, 317.313 1235 C 317.765 1242.158, 317.449 1244.903, 315.315 1252.382 C 311.601 1265.400, 312.941 1270.470, 321.538 1275.922 C 323.964 1277.460, 325.636 1279.031, 325.254 1279.412 C 324.873 1279.794, 325.257 1279.839, 326.108 1279.512 C 326.959 1279.186, 328.885 1279.386, 330.388 1279.958 C 333.096 1280.987, 333.115 1281.059, 332.452 1287.792 C 331.824 1294.161, 331.948 1294.784, 334.421 1297.723 C 339.229 1303.438, 344.637 1304.506, 368.500 1304.456 C 391.977 1304.407, 399.818 1303.273, 403.730 1299.360 C 405.931 1297.160, 406.118 1296.321, 405.657 1290.712 C 404.211 1273.115, 403.038 1268.567, 398.315 1262.239 C 396.976 1260.445, 395.692 1257.995, 395.460 1256.794 C 395.229 1255.594, 394.276 1253.911, 393.343 1253.056 C 391.876 1251.712, 391.895 1251.909, 393.477 1254.500 C 395.298 1257.482, 395.297 1257.489, 393.320 1255.744 C 391.269 1253.935, 384.112 1240.204, 381.985 1234 C 381.325 1232.075, 380.470 1228.684, 380.084 1226.463 C 379.698 1224.243, 378.997 1221.804, 378.527 1221.043 C 377.319 1219.089, 379.741 1220.133, 386.614 1224.530 C 390.081 1226.748, 392.859 1227.877, 393.867 1227.479 C 395.205 1226.951, 394.867 1226.298, 392 1223.864 C 390.075 1222.230, 386.510 1219.568, 384.079 1217.947 C 380.873 1215.811, 380.207 1215, 381.654 1215 C 382.753 1215, 384.630 1213.958, 385.826 1212.686 C 390.812 1207.377, 386.290 1200.343, 378.500 1201.292 C 376.300 1201.560, 373.765 1202.082, 372.867 1202.452 C 371.590 1202.977, 371.132 1202.401, 370.769 1199.812 C 370.514 1197.990, 369.935 1195.639, 369.482 1194.586 C 368.839 1193.089, 368.970 1192.852, 370.080 1193.497 C 370.861 1193.951, 370.532 1193.237, 369.350 1191.911 C 368.167 1190.585, 366.982 1188.600, 366.716 1187.500 C 366.259 1185.612, 366.225 1185.608, 366.116 1187.421 C 366.052 1188.478, 366.771 1190.278, 367.713 1191.421 C 369.275 1193.317, 369.218 1193.309, 367.064 1191.324 C 363.096 1187.667, 363.173 1175.432, 367.409 1136.500 C 371.877 1095.428, 373.627 1075.861, 375.041 1051.150 C 376.840 1019.695, 374.082 995.308, 365.467 966.500 C 363.494 959.900, 360.562 950.054, 358.952 944.620 C 356.823 937.434, 355.621 930.210, 354.543 918.120 C 353.728 908.979, 352.538 895.650, 351.898 888.500 C 350.783 876.039, 350.843 874.940, 353.351 862 C 356.864 843.874, 358.770 830.471, 360.391 812.500 C 361.135 804.250, 361.833 798.850, 361.942 800.500 C 362.115 803.117, 362.250 803.244, 363 801.500 C 364.117 798.900, 364.230 795.740, 363.182 796.387 C 362.732 796.665, 362.340 779.255, 362.310 757.696 C 362.276 733.210, 361.806 715.122, 361.057 709.500 C 360.397 704.550, 359.697 696.900, 359.501 692.500 C 359.090 683.278, 355.720 665.965, 349.477 641 C 347.070 631.375, 343.923 617.200, 342.484 609.500 C 338.488 588.121, 329.946 558.918, 326.544 555 C 325.044 553.273, 319.752 536.678, 317.537 526.755 C 316.709 523.045, 313.934 514.720, 311.370 508.255 C 308.806 501.790, 306.105 494.250, 305.366 491.500 C 303.425 484.271, 303.695 470.951, 306.059 457.349 C 307.192 450.832, 308.526 443.090, 309.024 440.145 C 309.522 437.200, 310.323 434.275, 310.805 433.645 C 311.287 433.015, 312.244 429.125, 312.933 425 C 314.812 413.739, 318.640 403.674, 320.603 404.833 C 320.913 405.017, 321.467 404.832, 321.833 404.423 C 322.200 404.014, 321.938 404.003, 321.250 404.399 C 319.880 405.187, 319.647 404.083, 320.639 401.498 C 321.152 400.162, 321.455 400.096, 322.170 401.166 C 322.761 402.052, 322.883 401.660, 322.531 400 C 322.240 398.625, 322.818 394.350, 323.815 390.500 L 325.629 383.500 329.400 399 C 331.475 407.525, 335.225 421.025, 337.735 429 C 347.404 459.717, 347.901 461.735, 349.009 474.749 C 349.607 481.762, 350.954 491.550, 352.005 496.500 C 354.443 507.995, 364.627 540.416, 374.463 568 C 391.953 617.047, 396.004 630.239, 396.665 640.308 L 397.280 649.674 392.169 660.087 C 386.556 671.520, 386.059 674.016, 385.511 693.500 C 385.325 700.100, 384.855 711.238, 384.466 718.252 C 383.684 732.337, 384.167 734, 389.034 734 C 390.932 734, 392.666 732.998, 394.466 730.858 L 397.109 727.717 396.413 730.489 C 395.878 732.623, 396.038 733.144, 397.109 732.755 C 397.874 732.477, 398.333 731.631, 398.128 730.875 C 397.537 728.687, 397.697 725.129, 398.822 715.500 C 400.496 701.157, 400.900 699.838, 403.380 700.596 C 407.122 701.741, 407.758 702.916, 408.893 710.781 C 410.545 722.224, 407.484 730.918, 401.261 732.463 C 399.742 732.840, 397.488 734.093, 396.250 735.248 C 393.843 737.495, 393.211 741, 395.212 741 C 395.878 741, 394.444 742.013, 392.025 743.250 C 386.710 745.969, 385.057 748.260, 386.613 750.752 C 387.411 752.030, 387.410 752.988, 386.611 754.255 C 385.052 756.726, 387.067 759.510, 390.377 759.461 C 392.749 759.425, 393.445 760.124, 393.128 762.222 C 392.965 763.302, 396.848 761.631, 403.008 757.969 C 406.029 756.174, 409.043 754.697, 409.706 754.686 C 410.369 754.675, 410.721 754.357, 410.487 753.979 C 409.785 752.844, 414.763 748.736, 415.951 749.470 C 416.555 749.843, 416.926 749.597, 416.775 748.923 C 416.624 748.248, 418.075 746.610, 420 745.283 C 424.593 742.116, 425.492 740.223, 428.996 726.352 C 430.619 719.926, 432.932 712.291, 434.136 709.386 C 436.267 704.243, 436.282 703.937, 434.681 697.802 C 430.505 681.786, 426.656 654.169, 427.452 645.925 C 427.801 642.308, 427.629 637.307, 427.070 634.810 C 424.846 624.887, 422.669 596.395, 420.513 549 C 419.160 519.234, 415.301 492.664, 410.062 477.024 C 408.405 472.080, 407.306 467.239, 407.619 466.267 C 408.047 464.939, 407.950 464.834, 407.227 465.844 C 406.521 466.832, 405.394 465.104, 402.987 459.344 C 401.184 455.030, 399.662 450.307, 399.604 448.848 C 399.547 447.390, 399.236 446.359, 398.912 446.557 C 397.860 447.202, 395.977 436.920, 393.963 419.536 C 391.710 400.092, 389.330 387.449, 384.825 371 C 381.758 359.801, 381.658 358.767, 380.995 331.500 C 380.267 301.590, 380.075 300.239, 373.813 281 C 370.191 269.873, 367.186 263.563, 363.320 258.969 C 356.369 250.708, 338.793 242.869, 323.359 241.146 C 313.862 240.086, 300.164 235.393, 296.436 231.922 C 295.300 230.865, 293.810 230, 293.124 230 C 292.214 230, 292.049 228.717, 292.513 225.250 C 293.441 218.321, 294.014 217.041, 295.088 219.500 C 295.676 220.846, 295.886 219.324, 295.731 214.842 C 295.604 211.181, 295.837 208.395, 296.250 208.651 C 297.464 209.407, 297.077 201.029, 295.570 193.917 C 294.802 190.296, 292.307 182.421, 290.025 176.417 C 287.742 170.413, 285.674 163.594, 285.429 161.265 C 284.934 156.570, 283.031 148.928, 280.600 141.876 C 279.088 137.490, 279.131 136.589, 281.439 124.376 C 283.641 112.721, 283.728 111.279, 282.361 109.172 C 281.382 107.661, 280.282 107.061, 279.232 107.465 C 277.795 108.016, 277.804 107.875, 279.306 106.214 C 280.238 105.185, 281.007 103.703, 281.015 102.921 C 281.028 101.740, 281.213 101.754, 282.110 103 C 282.999 104.236, 283.081 104.169, 282.575 102.617 C 282.237 101.581, 282.427 98.160, 282.997 95.014 C 283.721 91.022, 283.711 87.060, 282.963 81.897 C 282.374 77.829, 281.652 72.025, 281.359 69 C 280.553 60.698, 273.633 44.186, 268.063 37.273 C 265.474 34.060, 263.467 30.873, 263.603 30.191 C 263.739 29.508, 263.623 29.407, 263.345 29.965 C 262.854 30.952, 255.892 26.419, 255.119 24.608 C 254.910 24.118, 253.231 22.047, 251.387 20.007 C 249.544 17.967, 248.253 16.080, 248.518 15.815 C 248.783 15.550, 248.408 15.333, 247.685 15.333 C 246.962 15.333, 244.941 14.277, 243.195 12.986 C 240.693 11.136, 238.538 10.585, 233.022 10.386 C 229.172 10.246, 225.542 9.835, 224.955 9.472 C 223.172 8.370, 212.756 8.240, 208.500 9.267 M 274.015 150.091 C 274.007 150.415, 276.922 157.327, 280.494 165.449 C 286.160 178.332, 290.177 189.373, 293.793 202 C 294.674 205.075, 294.808 205.186, 294.898 202.910 C 295.044 199.194, 291.597 186.319, 288.174 177.802 C 285.479 171.095, 274.050 148.726, 274.015 150.091" stroke="none" fill="#C9A84C" fill-rule="evenodd"/>
</svg>