<svg xmlns="http://www.w3.org/2000/svg" width="555" height="1389" viewBox="0 0 555 1389" version="1.1">
	<path d="M 215 20 C 216.082 20.699, 215.148 20.974, 211.643 20.985 C 208.174 20.996, 206.923 21.357, 207.264 22.250 C 207.574 23.059, 206.650 23.580, 204.648 23.727 C 202.945 23.852, 199.183 24.700, 196.288 25.611 C 193.118 26.607, 189.427 27.052, 187.012 26.728 C 183.978 26.321, 183 26.533, 183 27.595 C 183 28.368, 183.520 29, 184.156 29 C 184.791 29, 184.004 30.179, 182.406 31.621 C 180.680 33.178, 180.210 34.002, 181.250 33.652 C 184.726 32.481, 182.751 34.580, 176.687 38.500 C 173.284 40.700, 170.493 43.228, 170.485 44.119 C 170.477 45.009, 168.835 47.547, 166.838 49.758 C 164.840 51.970, 162.904 54.729, 162.535 55.889 C 162.167 57.050, 161.221 58, 160.433 58 C 158.554 58, 158.608 59.430, 160.547 61.039 C 161.729 62.020, 161.803 62.504, 160.862 63.086 C 159.891 63.685, 159.905 64.181, 160.926 65.411 C 161.640 66.271, 161.968 67.641, 161.656 68.455 C 161.343 69.270, 161.518 70.202, 162.044 70.527 C 162.570 70.852, 163 70.566, 163 69.892 C 163 69.218, 163.231 68.898, 163.513 69.180 C 163.795 69.462, 163.349 71.314, 162.521 73.295 C 161.173 76.522, 161.190 78.438, 162.689 91.698 C 163.609 99.839, 164.305 108.061, 164.236 109.969 C 164.147 112.460, 164.374 113.023, 165.041 111.969 C 165.818 110.739, 165.972 110.784, 165.985 112.250 C 165.993 113.213, 165.341 114, 164.535 114 C 157.957 114, 161.376 140.297, 169.227 150.087 C 170.953 152.238, 174.833 154.221, 175.956 153.527 C 176.460 153.216, 177.161 155.108, 177.514 157.731 C 177.868 160.354, 178.903 164.975, 179.816 168 C 181.900 174.914, 182.126 208.053, 180.114 211.796 C 179.436 213.059, 176.158 216.097, 172.830 218.546 C 166.799 222.986, 164.236 224.122, 165.601 221.750 C 166.019 221.024, 165.939 220.849, 165.410 221.333 C 164.910 221.792, 164.500 222.678, 164.500 223.302 C 164.500 224.676, 155.424 229.941, 131.445 242.475 C 116.328 250.377, 111.466 252.406, 101.571 254.940 C 87.759 258.477, 81.273 261.258, 73.581 266.940 C 56.782 279.350, 44 308.578, 44 334.580 C 44 338.605, 44.682 347.101, 45.516 353.461 C 47.231 366.547, 47.266 366.309, 41.366 382.178 C 36.128 396.266, 34.368 406.095, 33.069 428.500 C 31.970 447.453, 30.355 457.333, 26.680 467.582 C 16.314 496.496, 16.127 497.181, 14.081 514 C 10.240 545.565, 9.675 556.957, 10.587 584.500 C 11.490 611.796, 11.618 640.328, 10.917 658 C 10.653 664.656, 10.991 670.688, 11.842 674.475 C 13.223 680.621, 12.889 687.865, 9.854 717.579 C 8.742 728.468, 8.765 728.742, 11.199 733.587 C 12.561 736.299, 14.941 742.338, 16.488 747.009 C 18.035 751.679, 20.563 757.750, 22.105 760.500 C 23.647 763.250, 24.929 765.837, 24.954 766.250 C 24.979 766.663, 25 767.450, 25 768 C 25 768.550, 25.761 769, 26.691 769 C 28.171 769, 28.140 768.808, 26.441 767.457 C 25.374 766.609, 26.879 767.075, 29.787 768.493 C 32.695 769.911, 34.862 771.414, 34.603 771.833 C 34.344 772.253, 34.595 773.249, 35.160 774.048 C 35.999 775.232, 36.085 775.177, 35.626 773.750 C 34.894 771.474, 35.332 771.534, 40.322 774.397 C 44.748 776.935, 58.776 782, 61.383 782 C 63.221 782, 65.371 778.410, 64.438 776.899 C 64.078 776.317, 64.732 775.176, 65.892 774.363 C 70.338 771.249, 66.711 765.076, 59.254 763.068 C 55.728 762.119, 55.333 761.711, 55.762 759.464 C 56.360 756.335, 53.954 753.470, 49.490 751.997 C 46.528 751.019, 46.088 750.339, 44.784 744.709 C 43.957 741.140, 43.521 735.622, 43.759 731.731 C 44.143 725.440, 44.379 724.855, 47.099 723.449 C 49.949 721.975, 50.053 722.008, 51.085 724.718 C 51.667 726.248, 52.839 730.875, 53.689 735 C 56.232 747.346, 60.886 754, 66.980 754 C 70.033 754, 73 751.280, 73 748.481 C 73 745.513, 70.867 735.052, 68.853 728.145 C 67.834 724.649, 66.998 719.474, 66.996 716.645 C 66.990 708.212, 64.365 694.600, 61.651 688.930 C 60.255 686.013, 59.346 683.249, 59.631 682.788 C 59.916 682.327, 59.716 682.074, 59.186 682.225 C 58.107 682.533, 52.554 675.942, 50.403 671.800 C 49.631 670.314, 49.064 667.389, 49.142 665.300 L 49.284 661.500 50 665.500 C 50.394 667.700, 50.813 669.275, 50.932 669 C 51.694 667.238, 51.989 663.145, 51.497 661.162 C 50.996 659.139, 50.700 659.004, 49.305 660.162 C 47.836 661.381, 47.756 660.831, 48.407 654 C 50.021 637.050, 54.788 618.912, 64.605 592.368 C 74.554 565.465, 76.009 559.582, 80.032 530 C 80.668 525.325, 81.548 514.300, 81.988 505.500 C 82.764 489.961, 82.910 489.183, 87.023 478.500 C 90.809 468.666, 102.823 423.961, 103.116 418.614 C 103.227 416.593, 103.254 416.588, 103.730 418.500 C 104.004 419.600, 107.150 427.025, 110.721 435 C 119.095 453.704, 122.403 467.113, 122.437 482.500 C 122.450 488.739, 122.737 491.985, 123.099 490 C 124.455 482.559, 124.016 496.641, 122.439 511.143 C 121.514 519.652, 120.970 532.221, 121.103 542 C 121.286 555.389, 120.933 560.479, 119.236 569 C 117.381 578.310, 113.109 589.775, 111.933 588.599 C 111.695 588.361, 111.457 589.142, 111.405 590.333 C 111.352 591.525, 109.440 599.250, 107.156 607.500 C 101.660 627.344, 92.715 666.794, 89.469 685.500 C 87.649 695.988, 86.510 707.770, 85.683 724.669 C 85.032 737.963, 84.193 749.145, 83.818 749.518 C 83.443 749.892, 83.355 749.141, 83.623 747.849 C 83.921 746.408, 83.492 746.841, 82.512 748.968 C 81.633 750.875, 80.370 752.781, 79.707 753.202 C 78.977 753.666, 79.587 753.975, 81.250 753.985 C 83.930 754, 84 754.146, 83.993 759.750 C 83.989 762.913, 83.317 774.050, 82.500 784.500 C 81.683 794.950, 80.280 815.650, 79.384 830.500 C 78.487 845.350, 77.548 860.019, 77.296 863.098 L 76.838 868.695 80.508 870.437 C 82.527 871.395, 86.031 872.715, 88.295 873.371 L 92.412 874.562 95.149 888.531 C 99.095 908.672, 99.492 915.967, 97.675 935 C 96.809 944.075, 95.818 955.989, 95.473 961.477 C 94.877 970.955, 93.121 978.878, 86.634 1001.347 C 77.551 1032.812, 76.346 1057.250, 81.549 1104.500 C 82.847 1116.287, 83.404 1130.180, 82.278 1122.688 C 81.931 1120.382, 81.598 1120.089, 80.428 1121.060 C 79.469 1121.856, 79 1124.302, 79 1128.511 C 79 1133.866, 79.255 1134.758, 80.750 1134.639 C 82.054 1134.535, 82.628 1133.352, 83 1130 C 83.740 1123.343, 92.364 1201.927, 92.357 1215.262 C 92.352 1225.527, 92.230 1226.151, 89.712 1228.779 C 87.317 1231.279, 86.448 1233.886, 84.388 1244.750 C 84.140 1246.061, 83.240 1246.994, 82.231 1246.985 C 80.748 1246.972, 80.715 1246.831, 82 1246 C 83.202 1245.223, 83.032 1245.028, 81.143 1245.015 C 79.544 1245.005, 78.957 1245.445, 79.317 1246.383 C 79.661 1247.279, 78.456 1248.393, 75.889 1249.550 C 73.712 1250.532, 70.821 1252.363, 69.465 1253.620 C 64.098 1258.594, 68.304 1264.834, 75.255 1262.210 C 76.967 1261.564, 78.480 1261.147, 78.617 1261.283 C 79.138 1261.805, 73.725 1274.879, 69.417 1283.500 C 66.752 1288.834, 62.798 1294.769, 59.710 1298.069 C 56.845 1301.131, 55.109 1302.845, 55.853 1301.877 C 56.597 1300.908, 57.047 1299.658, 56.853 1299.098 C 56.659 1298.538, 55.451 1299.686, 54.170 1301.649 C 52.888 1303.612, 52.384 1304.881, 53.049 1304.470 C 53.715 1304.058, 54.066 1304.122, 53.829 1304.611 C 49.415 1313.721, 48.804 1315.917, 47.753 1326.431 C 46.846 1335.511, 46.872 1338.141, 47.884 1339.360 C 51.498 1343.715, 71.601 1346.566, 92.481 1345.685 C 110.743 1344.914, 121.338 1341.973, 124.040 1336.925 C 124.645 1335.795, 124.996 1332.152, 124.820 1328.830 L 124.500 1322.789 131.078 1320.555 C 147.829 1314.867, 152.013 1309.204, 148.482 1297 C 145.567 1286.923, 145.576 1287.197, 148.149 1286.833 L 150.500 1286.500 148.375 1284.375 C 147.206 1283.206, 145.964 1281.631, 145.615 1280.875 C 145.266 1280.119, 145.209 1281.075, 145.489 1283 C 145.854 1285.511, 145.719 1286.076, 145.014 1285 C 144.473 1284.175, 144.024 1278.550, 144.015 1272.500 C 143.995 1257.965, 140.397 1239.623, 136.450 1233.927 L 133.691 1229.947 134.332 1215.723 C 134.685 1207.900, 135.859 1194.975, 136.942 1187 C 143.303 1140.134, 145.671 1128.647, 153.023 1109 C 163.394 1081.287, 164.478 1074.112, 163.453 1040 C 163.015 1025.425, 162.627 1007.425, 162.592 1000 C 162.520 985.026, 161.944 987.274, 172.372 961.885 C 178.612 946.694, 182.452 929.670, 187.593 894.411 L 190.375 875.323 196.147 874.130 C 203.561 872.599, 205 871.112, 205 864.980 C 205 862.297, 206.143 854.567, 207.539 847.801 C 208.936 841.035, 211.616 827.175, 213.496 817 C 216.531 800.575, 223.020 768.775, 224.719 762 C 225.345 759.504, 227.546 769.061, 233.470 800 C 234.787 806.875, 237.872 822.175, 240.326 834 C 242.780 845.825, 245.106 858.650, 245.497 862.500 C 245.887 866.350, 246.614 870.266, 247.112 871.201 C 247.672 872.252, 250.292 873.350, 253.963 874.073 L 259.908 875.242 260.947 880.371 C 261.519 883.192, 263.375 894.500, 265.072 905.500 C 266.770 916.500, 268.980 929.512, 269.984 934.416 C 270.988 939.321, 271.579 943.933, 271.298 944.666 C 271.016 945.400, 271.202 946, 271.710 946 C 272.219 946, 273.446 948.587, 274.438 951.750 C 275.430 954.913, 278.644 963.125, 281.581 970 C 289.966 989.627, 289.979 989.783, 286.933 1031.500 C 284.631 1063.019, 286.809 1079.298, 297.144 1107.815 C 300.415 1116.841, 302.936 1124.691, 302.747 1125.258 C 302.558 1125.826, 301.783 1124.312, 301.025 1121.895 C 300.123 1119.020, 299.505 1118.126, 299.238 1119.311 C 298.865 1120.964, 299.381 1122.509, 302.804 1130 C 303.932 1132.468, 303.941 1132.462, 303.489 1129.500 C 303.192 1127.557, 303.565 1128.085, 304.547 1131 C 308.059 1141.425, 316.135 1202.032, 316.340 1219.500 C 316.471 1230.685, 316.319 1231.716, 314.108 1234.675 C 310.267 1239.814, 306.739 1257.239, 306.869 1270.437 C 306.961 1279.877, 306.567 1282.742, 303.988 1291.362 C 302.345 1296.855, 301 1302.680, 301 1304.307 C 301 1311.064, 306.923 1316.148, 319.922 1320.547 L 326.500 1322.773 326.152 1329.334 C 325.839 1335.228, 326.055 1336.146, 328.282 1338.373 C 333.656 1343.746, 350.090 1346.499, 371.500 1345.612 C 387.462 1344.950, 397.375 1343.295, 401.480 1340.605 C 404.375 1338.708, 404.611 1335.946, 403.044 1322.319 C 401.894 1312.315, 399.305 1306.942, 391.087 1297.500 C 387.736 1293.650, 385.215 1289.914, 385.486 1289.198 C 385.756 1288.482, 385.565 1288.151, 385.061 1288.463 C 384.556 1288.774, 383.835 1288.054, 383.456 1286.862 C 383.078 1285.671, 381.482 1282.514, 379.910 1279.848 C 378.338 1277.181, 377.254 1275, 377.501 1275 C 377.748 1275, 377.456 1273.763, 376.851 1272.250 C 376.246 1270.737, 374.967 1267.420, 374.009 1264.878 L 372.266 1260.257 374.883 1261.622 C 378.497 1263.508, 380.658 1263.342, 383 1261 C 385.595 1258.405, 385.533 1257.800, 382.261 1253.827 C 380.754 1251.997, 380.206 1251.036, 381.042 1251.691 C 382.301 1252.677, 382.788 1252.375, 383.866 1249.941 C 384.582 1248.324, 385.778 1247, 386.525 1247 C 387.271 1247, 388.160 1246.550, 388.500 1246 C 388.886 1245.375, 386.844 1245, 383.059 1245 C 377.891 1245, 377 1245.265, 377 1246.800 C 377 1247.790, 377.548 1249.148, 378.219 1249.819 C 378.889 1250.489, 376.527 1249.856, 372.969 1248.413 C 369.411 1246.969, 366.139 1245.273, 365.698 1244.644 C 365.257 1244.015, 365.096 1240.974, 365.341 1237.886 C 365.586 1234.798, 365.370 1231.648, 364.862 1230.886 C 364.241 1229.953, 364.120 1230.481, 364.493 1232.500 C 365.027 1235.396, 365.008 1235.413, 363.963 1233.001 C 363.367 1231.626, 361.920 1229.479, 360.747 1228.231 C 356.987 1224.228, 357.278 1213.365, 362.359 1168 C 364.854 1145.725, 367.240 1124.125, 367.661 1120 C 368.083 1115.875, 368.585 1113.488, 368.776 1114.695 C 369.002 1116.118, 369.628 1116.696, 370.557 1116.340 C 371.344 1116.038, 371.724 1115.362, 371.400 1114.838 C 370.209 1112.912, 371.996 1109.140, 374.252 1108.819 C 376.076 1108.560, 376.560 1107.764, 376.820 1104.595 C 377.311 1098.593, 376.345 1096, 373.617 1096 C 371.585 1096, 371.187 1096.620, 370.636 1100.640 C 370.286 1103.191, 369.964 1106.904, 369.921 1108.890 C 369.878 1110.875, 369.604 1111.904, 369.313 1111.175 C 369.022 1110.446, 369.565 1100.546, 370.522 1089.175 C 372.502 1065.614, 372.124 1039.369, 369.588 1024.423 C 368.741 1019.431, 366.397 1009.756, 364.380 1002.923 C 357.265 978.821, 355.942 972.199, 355.005 956 C 354.512 947.475, 353.575 936.038, 352.924 930.584 C 351.511 918.763, 352.046 908.693, 354.947 892.500 C 356.129 885.900, 357.300 879.150, 357.548 877.500 C 357.953 874.814, 358.612 874.320, 363.851 872.781 C 367.068 871.836, 370.757 870.207, 372.048 869.162 C 374.371 867.281, 374.383 867.171, 373.197 858.268 C 372.539 853.321, 372.059 847.299, 372.132 844.887 L 372.263 840.500 373 844 C 373.611 846.905, 373.773 847.075, 373.947 845 C 374.063 843.625, 374.385 843.063, 374.662 843.750 C 375.521 845.879, 377.143 845.125, 376.813 842.750 C 376.608 841.279, 375.635 840.324, 374 839.992 L 371.500 839.484 370.802 820.992 C 370.417 810.821, 369.650 798.225, 369.096 793 C 368.542 787.775, 367.605 773.600, 367.012 761.500 C 366.420 749.400, 365.415 730.500, 364.780 719.500 C 364.144 708.500, 363.596 695.151, 363.562 689.836 C 363.528 684.521, 363.119 679.796, 362.653 679.336 C 362.188 678.876, 362.075 681.200, 362.402 684.500 C 362.729 687.800, 361.032 680.825, 358.631 669 C 356.230 657.175, 353.749 645.700, 353.118 643.500 C 352.488 641.300, 350.389 632.750, 348.454 624.500 C 344.128 606.050, 338.546 586.990, 336.015 582.029 C 334.972 579.985, 333.601 574.305, 332.968 569.406 C 332.335 564.508, 331.366 559.294, 330.816 557.819 C 330.133 555.990, 330.191 551.698, 330.997 544.319 C 331.900 536.069, 331.907 530.294, 331.028 520 C 328.215 487.052, 328.572 478.592, 333.617 458.588 C 336.741 446.200, 341.977 433.371, 343.163 435.200 C 343.753 436.110, 343.930 435.900, 343.753 434.500 C 343.484 432.372, 348.075 419, 349.074 419 C 349.400 419, 350.689 423.837, 351.940 429.750 C 353.190 435.662, 355.728 446.550, 357.579 453.944 C 359.430 461.339, 360.786 467.547, 360.592 467.741 C 360.399 467.935, 359.924 466.835, 359.539 465.298 L 358.837 462.502 357.454 465.001 C 356.693 466.375, 356.055 469.442, 356.035 471.816 C 356.002 475.942, 356.121 476.119, 358.750 475.816 C 361.222 475.532, 361.475 475.146, 361.255 472 C 361.070 469.351, 362.015 470.932, 365.141 478.500 C 369.209 488.350, 369.283 488.747, 370.070 505 C 370.509 514.075, 371.346 524.200, 371.928 527.500 C 373.523 536.529, 373.352 542.072, 371.500 541.362 C 369.838 540.724, 369.417 542.522, 371 543.500 C 371.550 543.840, 372.059 545.329, 372.132 546.809 C 372.247 549.165, 372.355 549.065, 373 546 C 373.587 543.210, 373.765 543.007, 373.877 545 C 374.268 551.949, 379.734 571.363, 386.366 589.362 C 398.535 622.388, 403 640.969, 403 658.584 C 403 667.791, 401.637 673.512, 399.724 672.329 C 399.183 671.995, 398.946 672.339, 399.198 673.093 C 399.449 673.847, 397.673 677.155, 395.252 680.444 C 387.834 690.521, 386.430 694.930, 385.045 712.500 C 384.441 720.166, 383.369 726.373, 382.078 729.685 C 380.967 732.537, 379.749 738.566, 379.373 743.084 C 378.764 750.388, 378.892 751.448, 380.535 752.649 C 383.962 755.155, 387.977 754.302, 391.826 750.250 C 395.124 746.779, 395.475 747.420, 392.306 751.125 C 391.077 752.562, 391.240 752.813, 393.702 753.283 C 397.618 754.032, 398 753.540, 398 747.750 C 398 742.986, 397.892 742.757, 396.494 744.559 C 395.100 746.356, 395.067 746.280, 396.053 743.530 C 396.639 741.896, 397.731 737.396, 398.480 733.530 C 399.229 729.663, 400.215 725.524, 400.671 724.332 C 401.456 722.280, 401.681 722.240, 404.901 723.597 C 406.772 724.386, 408.053 725.280, 407.749 725.585 C 407.444 725.889, 406.262 725.556, 405.122 724.844 C 402.576 723.254, 401.284 724.330, 400.394 728.781 C 399.761 731.947, 399.811 732, 403.492 732 C 406.973 732, 407.199 731.821, 406.741 729.424 C 406.470 728.007, 406.617 727.220, 407.067 727.674 C 408.407 729.028, 408.274 739.104, 406.838 744.900 C 405.669 749.618, 405.059 750.482, 402 751.749 C 400.075 752.547, 397.713 753.899, 396.750 754.755 C 394.728 756.552, 394.414 760.630, 396.250 761.267 C 396.938 761.505, 395.925 762.042, 394 762.459 C 386.051 764.184, 381.183 771.224, 385.900 774.170 C 386.945 774.822, 387.572 775.951, 387.293 776.678 C 387.014 777.405, 387.133 778.787, 387.557 779.750 C 387.980 780.712, 388.366 781.950, 388.414 782.500 C 388.537 783.926, 392.616 784.319, 394.721 783.109 C 396.090 782.322, 395.579 782.185, 392.500 782.512 C 390.300 782.746, 389.400 782.699, 390.500 782.408 C 391.600 782.117, 396.775 780.223, 402 778.199 C 407.225 776.176, 412.175 774.470, 413 774.408 C 413.825 774.347, 415.314 774.229, 416.309 774.148 C 417.304 774.067, 417.826 773.528, 417.470 772.951 C 417.028 772.237, 416.365 772.282, 415.387 773.094 C 414.597 773.749, 413.713 774.047, 413.422 773.755 C 413.130 773.464, 415.954 771.467, 419.696 769.317 C 427.301 764.948, 429.667 761.561, 434.587 748 C 438.852 736.243, 441.177 730.991, 441.914 731.447 C 442.287 731.678, 442.020 725.484, 441.319 717.683 C 437.965 680.337, 437.979 680.901, 440.092 670.854 C 441.774 662.854, 441.900 660.487, 440.963 654.500 C 439.202 643.254, 439.100 625.156, 440.658 600.500 C 441.698 584.034, 441.884 572.102, 441.310 558.500 C 440.869 548.050, 440.552 535, 440.606 529.500 C 440.672 522.801, 440.505 521.150, 440.102 524.500 C 439.570 528.916, 439.290 527.791, 437.699 514.877 C 435.826 499.671, 436.053 496.116, 439.152 492.115 C 440.169 490.803, 441 488.380, 441 486.729 L 441 483.727 438.330 486.397 C 436.287 488.441, 435.451 488.766, 434.769 487.784 C 434.213 486.982, 434.093 487.815, 434.448 490 C 434.825 492.313, 434.192 491.296, 432.581 487 C 431.241 483.425, 428.545 476.382, 426.590 471.350 C 422.133 459.875, 420.124 447.521, 418.977 424.535 C 418.121 407.372, 416.231 395.752, 412.954 387.500 C 412.299 385.850, 411.632 382.700, 411.473 380.500 C 411.313 378.300, 410.875 375.529, 410.499 374.341 C 409.989 372.732, 410.283 372.060, 411.657 371.703 C 412.770 371.413, 412.447 371.262, 410.842 371.322 L 408.185 371.421 409.717 375.252 C 410.561 377.359, 411.015 379.318, 410.728 379.605 C 410.441 379.893, 409.199 377.102, 407.968 373.403 C 405.971 367.404, 405.825 365.750, 406.615 358.089 C 407.102 353.365, 407.478 342.525, 407.451 334 C 407.393 315.629, 405.586 307.191, 398.512 292.257 C 396.042 287.042, 394.211 282.467, 394.444 282.090 C 394.677 281.713, 394.405 280.751, 393.840 279.952 C 393.033 278.813, 392.940 278.931, 393.408 280.500 C 393.804 281.826, 393.271 281.489, 391.825 279.500 C 390.626 277.850, 387.140 274.025, 384.077 271 C 381.015 267.975, 378.631 265.129, 378.779 264.676 C 378.928 264.222, 378.618 264.118, 378.089 264.445 C 377.561 264.771, 374.963 263.622, 372.315 261.892 C 369.667 260.162, 368.237 258.994, 369.137 259.298 C 370.345 259.706, 370.649 259.372, 370.296 258.025 C 369.945 256.682, 368.862 256.200, 366.195 256.200 L 362.571 256.200 365.035 257.669 C 366.701 258.662, 366.851 258.920, 365.500 258.464 C 364.400 258.093, 358.100 256.448, 351.500 254.808 C 341.429 252.306, 337.571 250.737, 327.500 245.049 C 320.900 241.321, 310.100 235.438, 303.500 231.976 C 288.421 224.067, 279.485 218.297, 275 213.576 L 271.500 209.892 271.500 189.696 C 271.500 176.625, 271.995 166.822, 272.904 161.911 C 274.156 155.144, 274.604 154.211, 277.035 153.293 C 278.644 152.686, 280.916 150.293, 282.580 147.453 C 285.568 142.356, 288.936 129.198, 288.976 122.473 C 289.002 118.143, 286.785 114, 284.443 114 C 282.745 114, 282.692 113.151, 283.940 105.934 C 284.457 102.945, 285.119 96.276, 285.411 91.113 C 285.922 82.070, 287 77.205, 287 83.940 C 287 86.515, 287.338 87.084, 288.582 86.607 C 289.452 86.273, 290.352 86, 290.582 86 C 290.812 86, 291 82.798, 291 78.883 C 291 72.272, 290.859 71.804, 289.011 72.287 C 287.378 72.714, 286.807 72.064, 285.818 68.653 C 285.156 66.369, 283.921 63.375, 283.074 62 C 281.594 59.597, 281.608 59.558, 283.431 61 C 285.213 62.410, 285.257 62.368, 284.158 60.306 C 283.515 59.099, 282.534 57.830, 281.978 57.487 C 281.422 57.143, 281.234 56.430, 281.560 55.903 C 281.886 55.376, 281.215 54.169, 280.069 53.222 C 278.923 52.275, 277.888 50.234, 277.769 48.687 C 277.650 47.140, 276.892 45.340, 276.085 44.687 C 274.967 43.783, 274.785 43.782, 275.324 44.681 C 275.714 45.330, 275.678 46.081, 275.245 46.349 C 274.811 46.617, 273.634 44.848, 272.629 42.418 C 270.762 37.902, 268.290 36.154, 269.566 40.250 C 270.244 42.428, 270.196 42.420, 268.080 40 L 265.894 37.500 266.479 40 C 266.911 41.849, 266.543 41.552, 265.064 38.859 C 263.964 36.856, 261.587 33.741, 259.782 31.936 C 257.977 30.131, 256.500 28.304, 256.500 27.877 C 256.500 27.450, 255.847 26.515, 255.048 25.800 C 253.795 24.678, 253.778 24.739, 254.921 26.250 C 255.732 27.323, 255.833 28, 255.181 28 C 254.597 28, 253.836 27.544, 253.491 26.986 C 252.584 25.518, 244.912 21.754, 244.226 22.441 C 243.907 22.760, 244.513 23.677, 245.573 24.479 C 247.849 26.200, 246.263 26.431, 242.359 24.946 C 231.863 20.956, 210.504 17.094, 215 20" stroke="none" fill="#C9A84C" fill-rule="evenodd"/>
</svg>